# xmcd CD database file
#
# Track frame offsets:
#	150
#	23077
#	49260
#	71567
#	88907
#	103170
#	112632
#	136495
#	151927
#	185792
#
# Disc length: 2770 seconds
#
# Revision: 0
# Processed by: cddbd v1.5.2PL0 Copyright (c) Steve Scherf et al.
# Submitted via: CDex 1.51
#
DISCID=850ad00a
DTITLE=Marty Ehrlich, Anthony Cox - Falling Man
DYEAR=1991
DGENRE=Jazz
TTITLE0=Falling Man
TTITLE1=Lament in Passing
TTITLE2=Wheels/Dice
TTITLE3=Phantoms
TTITLE4=The Terrible Twos
TTITLE5=Segue
TTITLE6=Bird's Mother
TTITLE7=The Protector
TTITLE8=You Don't Know What Love Is
TTITLE9=Mississippihouse
EXTD=YEAR: 1991
EXTT0=
EXTT1=
EXTT2=
EXTT3=
EXTT4=
EXTT5=
EXTT6=
EXTT7=
EXTT8=
EXTT9=
PLAYORDER=
